<?xml version="1.0" encoding="utf-8"?>
<!-- Generator: Adobe Illustrator 16.0.0, SVG Export Plug-In . SVG Version: 6.00 Build 0)  -->
<!DOCTYPE svg PUBLIC "-//W3C//DTD SVG 1.1//EN" "http://www.w3.org/Graphics/SVG/1.1/DTD/svg11.dtd">
<svg version="1.1" id="Layer_1" xmlns="http://www.w3.org/2000/svg" xmlns:xlink="http://www.w3.org/1999/xlink" x="0px" y="0px"
	 width="375px" height="375px" viewBox="0 0 375 375" enable-background="new 0 0 375 375" xml:space="preserve">
<polygon fill="none" stroke="#000000" stroke-width="2.8342" stroke-miterlimit="10" points="191.338,148.059 137.821,176.194 
	148.042,116.603 104.745,74.399 164.579,65.703 191.338,11.484 218.099,65.703 277.927,74.399 234.635,116.603 244.856,176.194 "/>
<polyline fill="none" stroke="#000000" stroke-width="2.1887" stroke-miterlimit="10" points="191.338,11.484 191.338,93.84 
	277.927,74.399 "/>
<polyline points="218.099,65.703 191.338,93.84 277.927,74.399 "/>
<polyline points="191.338,11.484 191.338,93.84 164.579,65.703 "/>
<polyline points="104.745,74.399 191.338,93.84 148.042,116.603 "/>
<polyline points="137.821,176.194 191.338,93.84 190.364,148.15 "/>
<polyline points="234.635,116.603 191.338,93.84 244.856,176.194 "/>
<path d="M158.444,316.316"/>
<polygon points="136.227,176.194 146.447,116.603 103.15,74.399 143.387,302.854 156.85,316.316 "/>
<polygon points="246.352,176.194 236.131,116.603 279.423,74.399 239.19,302.854 225.729,316.316 "/>
<polyline fill="none" stroke="#000000" stroke-width="2.8342" stroke-miterlimit="10" points="156.85,316.316 191.338,303.562 
	190.599,148.059 "/>
<polygon points="225.729,316.316 191.338,303.562 191.338,148.059 246.352,176.194 "/>
<polyline fill="none" stroke="#000000" stroke-width="2.8342" stroke-miterlimit="10" points="142.384,273.801 125.851,324.11 
	252.577,324.11 241.582,275.69 "/>
<rect x="124.079" y="324.11" width="130.021" height="33.303"/>
</svg>
