<?xml version="1.0" encoding="utf-8"?>
<!-- Generator: Adobe Illustrator 16.0.0, SVG Export Plug-In . SVG Version: 6.00 Build 0)  -->
<!DOCTYPE svg PUBLIC "-//W3C//DTD SVG 1.1//EN" "http://www.w3.org/Graphics/SVG/1.1/DTD/svg11.dtd">
<svg version="1.1" id="Layer_1" xmlns="http://www.w3.org/2000/svg" xmlns:xlink="http://www.w3.org/1999/xlink" x="0px" y="0px"
	 width="375px" height="375px" viewBox="0 0 375 375" enable-background="new 0 0 375 375" xml:space="preserve">
<g id="gyB0ik.tif">
	<g>
		<path fill-rule="evenodd" clip-rule="evenodd" d="M62.025,197.787c-5.867,0.321-6.841-0.572-6.844-5.749
			c-0.007-8.369-0.001-16.736-0.002-25.105c0-3.495,0.312-6.742,5.569-6.084c-1.342-2.769-2.422-5.055-3.552-7.319
			c-5.197-10.41-2.551-18.345,7.82-23.466c31.117-15.368,62.232-30.74,93.346-46.115c35.673-17.627,71.338-35.271,107.019-52.883
			c10.497-5.181,18.167-2.541,23.394,8.01c4.272,8.627,8.497,17.28,12.734,25.924c0.055,0.109,0.007,0.269,0.007,1.002
			c-71.442,35.294-143.12,70.703-214.435,105.933c1.193,3.335,2.258,6.309,3.574,9.988c75.926,0,152.566,0,229.735,0
			c0,2.045,0,3.557,0,5.07c0,47.522,0.004,95.042-0.005,142.565c-0.002,10.708-6.195,16.94-16.862,16.94
			c-74.759,0.008-149.518,0.006-224.277-0.003c-11.278-0.001-17.206-5.955-17.212-17.399c-0.025-42.699-0.009-85.398-0.008-128.097
			C62.025,200.022,62.025,199.044,62.025,197.787z M191.478,299.635c-24.247,0-48.494-0.001-72.742,0.007
			c-1.416,0-3.18-0.429-4.171,0.243c-1.709,1.158-3.784,2.869-4.116,4.644c-0.29,1.552,1.227,3.984,2.659,5.147
			c1.227,0.997,3.465,1.01,5.257,1.011c48.353,0.044,96.705,0.039,145.057,0.002c1.811-0.001,4.156,0.241,5.301-0.739
			c1.573-1.349,3.156-3.827,3.014-5.69c-0.124-1.607-2.484-3.277-4.186-4.435c-0.885-0.603-2.481-0.179-3.756-0.179
			C239.689,299.642,215.583,299.643,191.478,299.635z M191.086,269.24c12.905,0,25.81,0.001,38.714-0.001
			c12.196-0.002,24.392,0.004,36.588-0.02c3.347-0.006,5.409-1.694,5.64-5.06c0.248-3.609-1.833-5.49-5.25-5.961
			c-1.254-0.172-2.548-0.068-3.825-0.068c-47.932-0.002-95.865-0.005-143.797,0.007c-1.552,0.001-3.165-0.08-4.643,0.295
			c-3.75,0.95-5.803,5.14-3.47,7.855c1.397,1.625,4.239,2.801,6.443,2.819C142.018,269.301,166.552,269.229,191.086,269.24z
			 M216.328,194.19c-1.461-0.247-2.122-0.455-2.783-0.455c-13.458-0.021-26.919-0.093-40.375,0.081
			c-1.589,0.02-3.453,1.099-4.69,2.233c-6.473,5.931-12.766,12.061-19.169,18.07c-1.369,1.286-2.936,2.36-4.412,3.532
			c0.302,0.397,0.604,0.793,0.907,1.189c9.312,0,18.703-0.763,27.917,0.191c11.789,1.221,21.028-1.819,28.54-11.225
			C206.163,202.924,211.275,199.008,216.328,194.19z M237.36,218.721c0.049,0.007,0.553,0.119,1.058,0.12
			c13.605,0.007,27.212,0.061,40.816-0.083c1.496-0.017,3.302-0.824,4.419-1.856c7.186-6.628,14.225-13.415,21.29-20.173
			c0.734-0.701,1.323-1.556,2.549-3.022c-10.067,0-19.339,0.828-28.4-0.202c-12.368-1.404-21.901,2.204-29.55,11.933
			C245.831,210.155,241.426,214.328,237.36,218.721z M211.72,70.09c11.781,3.633,22.258,6.949,32.807,10.013
			c1.393,0.404,3.324-0.125,4.725-0.803c11.694-5.661,23.327-11.45,34.965-17.232c0.79-0.394,1.458-1.035,2.634-1.889
			c-7.973-2.504-15.549-4.34-22.677-7.271c-7.666-3.152-14.238-2.554-21.445,1.61C233.113,60.071,222.88,64.555,211.72,70.09z
			 M129.945,110.474c11.798,3.68,22.564,7.058,33.355,10.36c0.727,0.222,1.74,0.081,2.439-0.262
			c13.062-6.397,26.097-12.85,40.08-19.757c-11.832-3.669-22.702-7.062-33.598-10.369c-0.717-0.218-1.726,0.012-2.438,0.361
			C156.847,97.156,143.934,103.555,129.945,110.474z M71.239,218.842c4.077,0,7.649-0.447,11.071,0.079
			c12.091,1.867,21.533-1.98,29.189-11.593c3.793-4.761,8.787-8.565,14.052-13.579c-15.728,0-30.294-0.524-44.77,0.393
			c-3.341,0.211-7.987,4.825-9.148,8.361C70.053,207.32,71.239,213.045,71.239,218.842z M123.958,141.207
			c-11.547-3.59-21.789-6.814-32.067-9.915c-1.232-0.372-2.877-0.506-3.979,0.006c-6.541,3.046-13.066,6.159-19.382,9.637
			c-1.333,0.734-2.903,3.589-2.446,4.606c2.833,6.303,4.027,14.373,13.246,15.019c2.125,0.149,4.483,0.236,6.396-0.514
			c3.938-1.545,7.648-3.671,11.452-5.559C105.746,150.239,114.312,145.991,123.958,141.207z"/>
	</g>
</g>
</svg>
