<?xml version="1.0" encoding="utf-8"?>
<!-- Generator: Adobe Illustrator 16.0.0, SVG Export Plug-In . SVG Version: 6.00 Build 0)  -->
<!DOCTYPE svg PUBLIC "-//W3C//DTD SVG 1.1//EN" "http://www.w3.org/Graphics/SVG/1.1/DTD/svg11.dtd">
<svg version="1.1" id="Layer_1" xmlns="http://www.w3.org/2000/svg" xmlns:xlink="http://www.w3.org/1999/xlink" x="0px" y="0px"
	 width="375px" height="375px" viewBox="0 0 375 375" enable-background="new 0 0 375 375" xml:space="preserve">
<path fill-rule="evenodd" clip-rule="evenodd" d="M267.238,223.471c2.947-1.961,6.896-2.887,10.492-3.27
	c3.777-0.404,5.461-1.717,5.355-5.502c-0.113-3.996-0.152-8.002-0.012-11.994c0.121-3.445-1.467-4.883-4.771-4.84
	c-3.125,0.041-6.252,0.01-10.01,0.01c0-2.291,0-3.912,0-5.533c-0.006-26.326-0.012-52.65-0.018-78.975
	c-0.004-18.493-0.105-36.986,0.062-55.479c0.041-4.705-1.561-6.804-6.377-6.446c-3.147,0.233-6.334,0.175-9.491,0.008
	c-4.373-0.231-6.623,1.405-6.289,6.059c0.189,2.635,0.035,5.294,0.035,8.271c-39.553,0-78.273,0-117.33,0
	c0-3.049-0.15-5.714,0.035-8.354c0.301-4.267-1.482-6.201-5.797-5.974c-2.824,0.149-5.662,0.029-8.494,0.033
	c-7.805,0.011-7.817,0.011-7.817,7.864c0.001,43.986,0.007,87.973,0.011,131.958c0.001,1.953,0.001,3.904,0.001,6.514
	c-3.56,0-6.511,0.043-9.46-0.012c-3.659-0.064-5.611,1.398-5.446,5.336c0.161,3.826,0.158,7.666,0.021,11.492
	c-0.138,3.863,1.683,5.707,5.394,5.338c3.049-0.302,5.655,0.412,8.112,1.73l34.415,23.237c0.907,0.678,1.816,1.349,2.729,2.011
	c8.141,5.906,16.574,11.408,25.275,17.352c-2.174,1.562-3.756,2.748-5.385,3.863c-21.424,14.672-42.807,29.406-64.33,43.932
	c-3.902,2.633-4.782,5.107-1.896,8.916c1.704,2.248,3.098,4.727,4.668,7.078c3.838,5.746,4.473,5.898,10.161,2.021
	c24.344-16.602,48.709-33.174,72.955-49.918c2.658-1.836,4.475-1.9,7.023-0.092c7.059,5.012,14.27,9.809,21.422,14.688
	c17.602,12.012,35.242,23.965,52.774,36.078c3.742,2.588,6.277,2.227,8.521-1.746c1.553-2.75,3.281-5.424,5.18-7.947
	c2.762-3.672,2.531-6.242-1.59-8.965c-12.361-8.162-24.499-16.666-36.725-25.033c-10.932-7.482-21.869-14.959-33.193-22.705
	c1.713-1.297,2.844-2.229,4.049-3.053C230.046,248.725,248.527,235.922,267.238,223.471z M245.919,129.586
	c0,22.65,0,45.051,0,67.937c-2.109,0.105-4.047,0.283-5.984,0.285c-13.348,0.012-26.696-0.091-40.042,0.039l0.02-0.016h-49.192
	c-0.675-0.081-1.379-0.111-2.126-0.066c-0.474,0.028-0.949,0.045-1.424,0.066h-18c0-23.17,0-45.569,0-68.246
	C168.183,129.586,206.906,129.586,245.919,129.586z M189.162,249.602c-0.822,0.529-2.611,0.461-3.455-0.09
	c-6.348-4.148-12.572-8.488-19.883-13.484c14.82,0,28.408,0,43.564,0C201.98,241.039,195.634,245.42,189.162,249.602z"/>
</svg>
